# xmcd
#
# Track frame offsets: 
#        150
#        19148
#        38840
#        63052
#        77227
#        94108
#        111307
#        128108
#        145581
#        162925
#
# Disc length: 2441 seconds
#
# Revision: 0
# Processed by: cddbd v1.5.2PL0 Copyright (c) Steve Scherf et al.
# Submitted via: ExactAudioCopy v1.0b1
#
DISCID=7b09870a
DTITLE=U'Camp - Apa Kabar
DYEAR=2008
DGENRE=Rock
TTITLE0=Apa Kabar
TTITLE1=Selingan Cinta
TTITLE2=Menanti Jawaban
TTITLE3=Gila Tapi Waras
TTITLE4=Preman
TTITLE5=Kusudah Bosan
TTITLE6=Semesta Alam
TTITLE7=Relakan
TTITLE8=Izinkan Aku
TTITLE9=Bayangan (Repackage)
EXTD=
EXTT0=
EXTT1=
EXTT2=
EXTT3=
EXTT4=
EXTT5=
EXTT6=
EXTT7=
EXTT8=
EXTT9=
PLAYORDER=
